<svg width="512" height="512" viewBox="0 0 512 512" fill="none" xmlns="http://www.w3.org/2000/svg">
    <defs>
        <linearGradient id="cinemaGradient" x1="100" y1="100" x2="400" y2="400" gradientUnits="userSpaceOnUse">
            <stop offset="0%" stop-color="#FF5F6D" /> <stop offset="100%" stop-color="#FFC371" /> </linearGradient>
        <linearGradient id="bgGradient" x1="0" y1="0" x2="512" y2="512" gradientUnits="userSpaceOnUse">
             <stop offset="0%" stop-color="#1a1a2e" /> <stop offset="100%" stop-color="#16213e" /> </linearGradient>
    </defs>

    <rect width="512" height="512" rx="100" fill="url(#bgGradient)"/>

    <g transform="translate(106, 106) scale(0.6)">
        <path d="M430 225C445 235 445 255 430 265L130 440C115 450 95 440 95 420L95 70C95 50 115 40 130 50L430 225Z" fill="url(#cinemaGradient)"/>

        <rect x="105" y="80" width="20" height="30" rx="4" fill="#1a1a2e" opacity="0.7"/>
        <rect x="105" y="140" width="20" height="30" rx="4" fill="#1a1a2e" opacity="0.7"/>
        <rect x="105" y="200" width="20" height="30" rx="4" fill="#1a1a2e" opacity="0.7"/>
        <rect x="105" y="260" width="20" height="30" rx="4" fill="#1a1a2e" opacity="0.7"/>
        <rect x="105" y="320" width="20" height="30" rx="4" fill="#1a1a2e" opacity="0.7"/>
        <rect x="105" y="380" width="20" height="30" rx="4" fill="#1a1a2e" opacity="0.7"/>

        <path d="M250 290C235 290 225 280 225 265C225 250 235 240 250 240C265 240 275 230 275 215C275 200 265 190 250 190C235 190 225 200 225 215H185C185 175 215 150 250 150C285 150 315 175 315 215C315 245 300 260 285 270C275 275 265 280 265 290H250ZM250 350C235 350 225 340 225 325C225 310 235 300 250 300C265 300 275 310 275 325C275 340 265 350 250 350Z" fill="#1a1a2e"/>
    </g>
</svg>